<svg width="47" height="54" viewBox="0 0 47 54" fill="none" xmlns="http://www.w3.org/2000/svg">
<path d="M8.92871 8.49998C8.92871 7.15872 10.016 6.07141 11.3573 6.07141H35.643C36.9843 6.07141 38.0716 7.15872 38.0716 8.49998V15.7857H8.92871V8.49998Z" fill="#6AEAD5"/>
<circle cx="23.4999" cy="8.50005" r="1.21429" fill="#34AD99"/>
<path d="M8.92871 17H38.0716V26.7143C38.0716 28.0555 36.9843 29.1429 35.643 29.1429H11.3573C10.016 29.1429 8.92871 28.0555 8.92871 26.7143V17Z" fill="#6AEAD5"/>
<circle cx="23.4999" cy="19.4285" r="1.21429" fill="#34AD99"/>
<path d="M15.9648 40.4492V51.043H14.7109V45.6875H13.5391V50.5039H12.3203V40.6484H13.5391V44.6211H14.7109V40.4492H15.9648ZM8.64062 41.668V47.2578C9.55469 47.2402 10.5566 47.1641 11.6641 46.9414L11.793 48.0781C10.3633 48.3359 9.15625 48.4062 8.03125 48.4062H7.32812V41.668H8.64062ZM29.7461 45.5586V46.6016H20.0898V45.5586H24.2617V44.6914C22.3105 44.5625 21.0859 43.8301 21.0859 42.6875C21.0859 41.3984 22.5859 40.6484 24.9062 40.6484C27.25 40.6484 28.7148 41.3984 28.7266 42.6875C28.7148 43.8359 27.5137 44.5684 25.5391 44.6914V45.5586H29.7461ZM25.5625 47.4219C25.5625 48.6523 26.8633 49.707 29.0547 49.9883L28.5508 50.9844C26.8574 50.7441 25.5566 50.041 24.918 49.0156C24.2559 50.041 22.9492 50.7441 21.2617 50.9844L20.7695 49.9883C22.9492 49.707 24.2383 48.6523 24.25 47.4219V47.1641H25.5625V47.4219ZM24.9062 41.6445C23.3594 41.6445 22.4336 42.0078 22.4453 42.6875C22.4336 43.3555 23.3594 43.6953 24.9062 43.6953C26.4531 43.6953 27.3789 43.3555 27.3789 42.6875C27.3789 42.0078 26.4531 41.6445 24.9062 41.6445ZM34.2578 42.3594C34.2578 43.6602 35.1016 44.8789 36.7539 45.3828L36.1328 46.4023C34.9434 46.0332 34.0996 45.2773 33.6367 44.3164C33.168 45.4297 32.2715 46.3145 31 46.7422L30.3438 45.7109C32.0547 45.1484 32.9453 43.7773 32.9453 42.3711V42.2422H30.707V41.1875H36.4609V42.2422H34.2578V42.3594ZM38.8164 40.4492V42.9922H40.293V44.0586H38.8164V46.7656H37.5156V40.4492H38.8164ZM35.3711 47C37.5625 47 38.9102 47.7383 38.9219 49.0039C38.9102 50.2812 37.5625 51.0312 35.3711 51.0312C33.1562 51.0312 31.7852 50.2812 31.7852 49.0039C31.7852 47.7383 33.1562 47 35.3711 47ZM35.3711 48.0195C33.918 48.0195 33.0859 48.3594 33.0859 49.0039C33.0859 49.6602 33.918 50.0117 35.3711 50.0117C36.8242 50.0117 37.6328 49.6602 37.6328 49.0039C37.6328 48.3594 36.8242 48.0195 35.3711 48.0195Z" fill="#43C9B3"/>
</svg>
