<svg width="47" height="54" viewBox="0 0 47 54" fill="none" xmlns="http://www.w3.org/2000/svg">
<path d="M8.92856 8.49986C8.92856 7.1586 10.0159 6.07129 11.3571 6.07129H35.6428C36.9841 6.07129 38.0714 7.1586 38.0714 8.49986V15.7856H8.92856V8.49986Z" fill="#8E8E93"/>
<circle cx="23.5" cy="8.49993" r="1.21429" fill="#E5E5EA"/>
<path d="M8.92856 17H38.0714V26.7143C38.0714 28.0555 36.9841 29.1429 35.6428 29.1429H11.3571C10.0159 29.1429 8.92856 28.0555 8.92856 26.7143V17Z" fill="#8E8E93"/>
<circle cx="23.5" cy="19.4286" r="1.21429" fill="#E5E5EA"/>
<path d="M14.0859 40.076H15.0459V50.936H14.0859V40.076ZM12.2739 44.492H14.3619V45.32H12.2739V44.492ZM11.6259 40.316H12.5619V50.372H11.6259V40.316ZM6.38191 41.384H7.37791V47.648H6.38191V41.384ZM6.38191 47.252H7.06591C7.63391 47.252 8.22991 47.232 8.85391 47.192C9.47791 47.144 10.1419 47.048 10.8459 46.904L10.9659 47.78C10.2299 47.924 9.54191 48.02 8.90191 48.068C8.26191 48.108 7.64991 48.128 7.06591 48.128H6.38191V47.252ZM20.268 45.44H30.072V46.244H20.268V45.44ZM24.66 46.976H25.524V47.312C25.524 47.8 25.412 48.244 25.188 48.644C24.972 49.036 24.672 49.384 24.288 49.688C23.912 49.992 23.476 50.244 22.98 50.444C22.484 50.652 21.96 50.8 21.408 50.888L21.024 50.108C21.52 50.036 21.984 49.92 22.416 49.76C22.856 49.592 23.244 49.388 23.58 49.148C23.916 48.9 24.18 48.624 24.372 48.32C24.564 48.008 24.66 47.672 24.66 47.312V46.976ZM24.816 46.976H25.668V47.312C25.668 47.672 25.764 48.008 25.956 48.32C26.148 48.624 26.412 48.9 26.748 49.148C27.084 49.388 27.472 49.592 27.912 49.76C28.352 49.92 28.82 50.036 29.316 50.108L28.92 50.888C28.368 50.8 27.844 50.652 27.348 50.444C26.852 50.244 26.416 49.992 26.04 49.688C25.664 49.384 25.364 49.036 25.14 48.644C24.924 48.244 24.816 47.8 24.816 47.312V46.976ZM24.672 44.084H25.644V45.788H24.672V44.084ZM25.164 40.304C25.948 40.304 26.624 40.384 27.192 40.544C27.768 40.704 28.208 40.94 28.512 41.252C28.824 41.556 28.98 41.924 28.98 42.356C28.98 42.78 28.824 43.148 28.512 43.46C28.208 43.764 27.768 43.996 27.192 44.156C26.624 44.316 25.948 44.396 25.164 44.396C24.388 44.396 23.712 44.316 23.136 44.156C22.568 43.996 22.128 43.764 21.816 43.46C21.504 43.148 21.348 42.78 21.348 42.356C21.348 41.924 21.504 41.556 21.816 41.252C22.128 40.94 22.568 40.704 23.136 40.544C23.712 40.384 24.388 40.304 25.164 40.304ZM25.164 41.084C24.596 41.084 24.1 41.136 23.676 41.24C23.26 41.336 22.936 41.48 22.704 41.672C22.48 41.856 22.368 42.084 22.368 42.356C22.368 42.612 22.48 42.836 22.704 43.028C22.936 43.212 23.26 43.356 23.676 43.46C24.1 43.556 24.596 43.604 25.164 43.604C25.74 43.604 26.236 43.556 26.652 43.46C27.076 43.356 27.4 43.212 27.624 43.028C27.848 42.836 27.96 42.612 27.96 42.356C27.96 42.084 27.848 41.856 27.624 41.672C27.4 41.48 27.076 41.336 26.652 41.24C26.236 41.136 25.74 41.084 25.164 41.084ZM33.983 41.24H34.799V42.116C34.799 42.788 34.671 43.408 34.415 43.976C34.167 44.544 33.815 45.04 33.359 45.464C32.911 45.888 32.379 46.212 31.763 46.436L31.259 45.644C31.803 45.452 32.279 45.18 32.687 44.828C33.095 44.468 33.411 44.056 33.635 43.592C33.867 43.128 33.983 42.636 33.983 42.116V41.24ZM34.163 41.24H34.979V42.116C34.979 42.588 35.087 43.036 35.303 43.46C35.519 43.884 35.823 44.256 36.215 44.576C36.607 44.896 37.067 45.148 37.595 45.332L37.127 46.112C36.519 45.904 35.995 45.604 35.555 45.212C35.115 44.82 34.771 44.36 34.523 43.832C34.283 43.296 34.163 42.724 34.163 42.116V41.24ZM31.559 40.88H37.367V41.696H31.559V40.88ZM38.735 40.076H39.731V46.616H38.735V40.076ZM39.455 42.836H41.327V43.664H39.455V42.836ZM36.275 46.916C37.011 46.916 37.643 46.996 38.171 47.156C38.707 47.308 39.119 47.532 39.407 47.828C39.695 48.124 39.839 48.484 39.839 48.908C39.839 49.332 39.695 49.692 39.407 49.988C39.119 50.284 38.707 50.512 38.171 50.672C37.643 50.832 37.011 50.912 36.275 50.912C35.539 50.912 34.903 50.832 34.367 50.672C33.831 50.512 33.419 50.284 33.131 49.988C32.843 49.692 32.699 49.332 32.699 48.908C32.699 48.484 32.843 48.124 33.131 47.828C33.419 47.532 33.831 47.308 34.367 47.156C34.903 46.996 35.539 46.916 36.275 46.916ZM36.275 47.708C35.739 47.708 35.275 47.756 34.883 47.852C34.499 47.948 34.203 48.084 33.995 48.26C33.787 48.436 33.683 48.652 33.683 48.908C33.683 49.164 33.787 49.384 33.995 49.568C34.203 49.744 34.499 49.88 34.883 49.976C35.275 50.072 35.739 50.12 36.275 50.12C36.811 50.12 37.271 50.072 37.655 49.976C38.039 49.88 38.335 49.744 38.543 49.568C38.751 49.384 38.855 49.164 38.855 48.908C38.855 48.652 38.751 48.436 38.543 48.26C38.335 48.084 38.039 47.948 37.655 47.852C37.271 47.756 36.811 47.708 36.275 47.708Z" fill="#AEAEB2"/>
</svg>
