<svg width="47" height="54" viewBox="0 0 47 54" fill="none" xmlns="http://www.w3.org/2000/svg">
<path d="M19.211 4.40271L19.8871 4.69816C24.8607 6.8717 30.2161 8.0369 35.6432 8.1263L33.0367 19.6289C27.3672 19.4846 21.7824 18.219 16.6045 15.9053L19.211 4.40271Z" fill="#6AEAD5"/>
<rect x="17.2637" y="3.33423" width="3.12698" height="26.7276" rx="1.56349" transform="rotate(12.7677 17.2637 3.33423)" fill="#34AD99"/>
<path d="M22.0938 46.0039V47.0352H14.6641V41.2812H22V42.3359H15.9883V43.6133H21.7539V44.6328H15.9883V46.0039H22.0938ZM23.1602 48.6875V49.7539H13.4805V48.6875H23.1602ZM32.6758 40.4609V46.332H31.3633V40.4609H32.6758ZM29.2773 40.9414V44H25.6914V45.0664C27.5078 45.0488 28.791 45.0137 30.3086 44.7617L30.4727 45.8164C28.7969 46.0859 27.3672 46.1328 25.3164 46.1328H24.4141V43.0039H27.9883V41.9961H24.3906V40.9414H29.2773ZM26.957 46.8008V47.832H31.375V46.8008H32.6758V50.9141H25.6562V46.8008H26.957ZM26.957 49.8594H31.375V48.8398H26.957V49.8594Z" fill="#43C9B3"/>
</svg>
