<svg width="47" height="54" viewBox="0 0 47 54" fill="none" xmlns="http://www.w3.org/2000/svg">
<rect x="8.92871" y="2.42859" width="29.1429" height="29.1429" rx="14.5714" fill="#C7C7CC"/>
<path d="M23.5005 11.1714V22.8285" stroke="#8E8E93" stroke-width="1.45714" stroke-linecap="round"/>
<path d="M29.3291 17L17.672 17" stroke="#8E8E93" stroke-width="1.45714" stroke-linecap="round"/>
<path d="M4.69788 41.192H5.51388V42.068C5.51388 42.732 5.38588 43.352 5.12988 43.928C4.88188 44.496 4.53388 44.992 4.08588 45.416C3.63788 45.832 3.10988 46.148 2.50188 46.364L1.97388 45.596C2.51788 45.404 2.99388 45.128 3.40188 44.768C3.80988 44.408 4.12588 44 4.34988 43.544C4.58188 43.08 4.69788 42.588 4.69788 42.068V41.192ZM4.87788 41.192H5.69388V42.068C5.69388 42.54 5.80188 42.996 6.01788 43.436C6.23388 43.876 6.53788 44.264 6.92988 44.6C7.32988 44.936 7.79388 45.196 8.32188 45.38L7.81788 46.16C7.22588 45.944 6.70588 45.636 6.25788 45.236C5.81788 44.828 5.47788 44.352 5.23788 43.808C4.99788 43.264 4.87788 42.684 4.87788 42.068V41.192ZM2.27388 40.832H8.08188V41.648H2.27388V40.832ZM9.44988 40.076H10.4459V46.616H9.44988V40.076ZM10.1699 42.932H12.0419V43.772H10.1699V42.932ZM3.38988 47.192H10.4459V50.936H9.44988V48.008H3.38988V47.192ZM15.7969 40.688H16.6249V41.804C16.6249 42.508 16.4969 43.156 16.2409 43.748C15.9929 44.34 15.6409 44.86 15.1849 45.308C14.7369 45.748 14.2009 46.084 13.5769 46.316L13.0489 45.512C13.6089 45.312 14.0929 45.028 14.5009 44.66C14.9089 44.292 15.2249 43.864 15.4489 43.376C15.6809 42.88 15.7969 42.356 15.7969 41.804V40.688ZM15.9769 40.688H16.7809V41.768C16.7809 42.28 16.8929 42.764 17.1169 43.22C17.3409 43.676 17.6489 44.08 18.0409 44.432C18.4409 44.776 18.9049 45.036 19.4329 45.212L18.8929 45.992C18.3089 45.768 17.7969 45.452 17.3569 45.044C16.9169 44.636 16.5769 44.152 16.3369 43.592C16.0969 43.032 15.9769 42.424 15.9769 41.768V40.688ZM20.9929 40.076H21.9889V46.496H20.9929V40.076ZM18.4129 46.82C19.5329 46.82 20.4129 47 21.0529 47.36C21.7009 47.72 22.0249 48.224 22.0249 48.872C22.0249 49.512 21.7009 50.012 21.0529 50.372C20.4129 50.732 19.5329 50.912 18.4129 50.912C17.2929 50.912 16.4089 50.732 15.7609 50.372C15.1209 50.012 14.8009 49.512 14.8009 48.872C14.8009 48.224 15.1209 47.72 15.7609 47.36C16.4089 47 17.2929 46.82 18.4129 46.82ZM18.4129 47.612C17.8689 47.612 17.4009 47.664 17.0089 47.768C16.6169 47.864 16.3129 48.008 16.0969 48.2C15.8889 48.384 15.7849 48.608 15.7849 48.872C15.7849 49.128 15.8889 49.352 16.0969 49.544C16.3129 49.728 16.6169 49.872 17.0089 49.976C17.4009 50.072 17.8689 50.12 18.4129 50.12C18.9649 50.12 19.4329 50.072 19.8169 49.976C20.2089 49.872 20.5089 49.728 20.7169 49.544C20.9329 49.352 21.0409 49.128 21.0409 48.872C21.0409 48.608 20.9329 48.384 20.7169 48.2C20.5089 48.008 20.2089 47.864 19.8169 47.768C19.4329 47.664 18.9649 47.612 18.4129 47.612ZM18.6289 42.368H21.1969V43.196H18.6289V42.368ZM31.456 40.076H32.44V50.936H31.456V40.076ZM32.212 44.54H34.216V45.38H32.212V44.54ZM24.04 41.816H30.436V42.632H24.04V41.816ZM27.292 43.52C27.804 43.52 28.256 43.628 28.648 43.844C29.048 44.06 29.36 44.356 29.584 44.732C29.816 45.1 29.932 45.528 29.932 46.016C29.932 46.504 29.816 46.936 29.584 47.312C29.36 47.688 29.048 47.984 28.648 48.2C28.256 48.408 27.804 48.512 27.292 48.512C26.78 48.512 26.324 48.408 25.924 48.2C25.532 47.984 25.22 47.688 24.988 47.312C24.756 46.936 24.64 46.504 24.64 46.016C24.64 45.528 24.756 45.1 24.988 44.732C25.22 44.356 25.532 44.06 25.924 43.844C26.324 43.628 26.78 43.52 27.292 43.52ZM27.292 44.348C26.964 44.348 26.672 44.42 26.416 44.564C26.16 44.708 25.956 44.904 25.804 45.152C25.66 45.4 25.588 45.688 25.588 46.016C25.588 46.344 25.66 46.636 25.804 46.892C25.956 47.14 26.16 47.336 26.416 47.48C26.672 47.616 26.964 47.684 27.292 47.684C27.612 47.684 27.9 47.616 28.156 47.48C28.412 47.336 28.612 47.14 28.756 46.892C28.908 46.636 28.984 46.344 28.984 46.016C28.984 45.688 28.908 45.4 28.756 45.152C28.612 44.904 28.412 44.708 28.156 44.564C27.9 44.42 27.612 44.348 27.292 44.348ZM26.776 40.208H27.772V42.176H26.776V40.208ZM43.0471 40.076H44.0431V50.936H43.0471V40.076ZM39.8671 41.252H40.8511C40.8511 42.036 40.7551 42.792 40.5631 43.52C40.3791 44.248 40.0871 44.94 39.6871 45.596C39.2871 46.244 38.7671 46.848 38.1271 47.408C37.4871 47.968 36.7111 48.468 35.7991 48.908L35.2711 48.104C36.3191 47.6 37.1831 47.012 37.8631 46.34C38.5431 45.668 39.0471 44.92 39.3751 44.096C39.7031 43.264 39.8671 42.368 39.8671 41.408V41.252ZM35.7751 41.252H40.2871V42.056H35.7751V41.252Z" fill="#AEAEB2"/>
</svg>
