<svg width="47" height="54" viewBox="0 0 47 54" fill="none" xmlns="http://www.w3.org/2000/svg">
<rect x="8.92871" y="2.42859" width="29.1429" height="29.1429" rx="14.5714" fill="#34AD99"/>
<path d="M23.5005 11.1714V22.8285" stroke="#9DF2E3" stroke-width="1.45714" stroke-linecap="round"/>
<path d="M29.3291 17L17.672 17" stroke="#9DF2E3" stroke-width="1.45714" stroke-linecap="round"/>
<path d="M6.90625 42.2891C6.90625 43.5898 7.75 44.8789 9.41406 45.4297L8.75781 46.4375C7.57422 46.0449 6.73047 45.248 6.27344 44.2578C5.79883 45.3418 4.91992 46.2031 3.68359 46.625L2.99219 45.6172C4.70312 45.0547 5.59375 43.6836 5.59375 42.2891V42.1602H3.35547V41.1172H9.10938V42.1602H6.90625V42.2891ZM11.4648 40.4492V43.0977H12.9414V44.1875H11.4648V46.8359H10.1641V40.4492H11.4648ZM11.4648 47.3281V51.043H10.1641V48.3711H4.41016V47.3281H11.4648ZM17.3594 41.9727C17.3477 43.4141 18.1914 44.7266 19.8555 45.2539L19.1523 46.2734C17.998 45.8691 17.1895 45.1016 16.7383 44.0938C16.2695 45.248 15.3848 46.1562 14.1016 46.6016L13.4102 45.5469C15.168 44.9727 16.0469 43.5547 16.0469 42.0312V41.0234H17.3594V41.9727ZM22.3516 40.4492V46.6836H21.0508V43.5664H18.9414V42.5H21.0508V40.4492H22.3516ZM18.7656 46.9648C21.0156 46.9648 22.3867 47.7148 22.3867 49.0039C22.3867 50.293 21.0156 51.0312 18.7656 51.0312C16.5273 51.0312 15.1562 50.293 15.168 49.0039C15.1562 47.7148 16.5273 46.9648 18.7656 46.9648ZM18.7656 47.9727C17.2891 47.9727 16.457 48.3359 16.457 49.0039C16.457 49.6484 17.2891 50.0117 18.7656 50.0117C20.2422 50.0117 21.0859 49.6484 21.0859 49.0039C21.0859 48.3359 20.2422 47.9727 18.7656 47.9727ZM32.1484 40.4492V44.668H33.7773V45.7461H32.1484V51.043H30.8594V40.4492H32.1484ZM30.0391 42.0781V43.1211H23.793V42.0781H26.3008V40.6016H27.6016V42.0781H30.0391ZM26.957 43.8125C28.4805 43.8125 29.6172 44.8438 29.6172 46.3086C29.6172 47.7734 28.4805 48.793 26.957 48.793C25.4102 48.793 24.2734 47.7734 24.2852 46.3086C24.2734 44.8438 25.4102 43.8125 26.957 43.8125ZM26.957 44.8789C26.125 44.8789 25.5273 45.4414 25.5273 46.3086C25.5273 47.1758 26.125 47.7266 26.957 47.7148C27.7656 47.7266 28.3633 47.1758 28.375 46.3086C28.3633 45.4414 27.7656 44.8789 26.957 44.8789ZM43.0703 40.4492V51.043H41.7578V40.4492H43.0703ZM39.9062 41.5742C39.9062 44.7266 38.6875 47.4102 34.9727 49.168L34.293 48.125C37.0645 46.8066 38.3535 45.0137 38.582 42.6055H34.832V41.5742H39.9062Z" fill="#43C9B3"/>
</svg>
