<svg width="47" height="54" viewBox="0 0 47 54" fill="none" xmlns="http://www.w3.org/2000/svg">
<path d="M19.211 4.40271L19.8871 4.69816C24.8607 6.8717 30.2161 8.0369 35.6432 8.1263L33.0367 19.6289C27.3672 19.4846 21.7824 18.219 16.6045 15.9053L19.211 4.40271Z" fill="#8E8E93"/>
<rect x="17.2637" y="3.33423" width="3.12698" height="26.7276" rx="1.56349" transform="rotate(12.7677 17.2637 3.33423)" fill="#E5E5EA"/>
<path d="M14.3209 45.932H21.7729V46.736H14.3209V45.932ZM13.0609 48.704H22.9009V49.532H13.0609V48.704ZM14.3209 41.012H21.6649V41.828H15.3289V46.172H14.3209V41.012ZM15.0169 43.424H21.4249V44.228H15.0169V43.424ZM31.996 40.088H32.992V46.052H31.996V40.088ZM24.664 44.996H25.54C26.196 44.996 26.804 44.988 27.364 44.972C27.932 44.956 28.484 44.924 29.02 44.876C29.556 44.82 30.112 44.748 30.688 44.66L30.808 45.476C30.208 45.572 29.632 45.644 29.08 45.692C28.536 45.74 27.976 45.776 27.4 45.8C26.832 45.816 26.212 45.824 25.54 45.824H24.664V44.996ZM24.64 40.604H29.56V43.556H25.636V45.536H24.664V42.776H28.588V41.42H24.64V40.604ZM25.984 46.592H26.968V47.864H32.008V46.592H32.992V50.792H25.984V46.592ZM26.968 48.656V49.976H32.008V48.656H26.968Z" fill="#AEAEB2"/>
</svg>
